<svg xmlns="http://www.w3.org/2000/svg" xmlns:xlink="http://www.w3.org/1999/xlink" viewBox="0 0 430 430" width="430" height="430" preserveAspectRatio="xMidYMid meet" style="width: 100%; height: 100%; transform: translate3d(0px, 0px, 0px); content-visibility: visible;"><defs><clipPath id="__lottie_element_7372"><rect width="430" height="430" x="0" y="0"/></clipPath><clipPath id="__lottie_element_7374"><path d="M0,0 L430,0 L430,430 L0,430z"/></clipPath><g id="__lottie_element_7390"><g transform="matrix(1,0,0,1,223,215)" opacity="1" style="display: block;"><g opacity="1" transform="matrix(1,0,0,1,-346.5,0.5)"><path stroke-linecap="butt" stroke-linejoin="miter" fill-opacity="0" stroke-miterlimit="4" stroke="rgb(18,19,49)" stroke-opacity="1" stroke-width="0" d=" M178.5,-204.5 C178.5,-204.5 178.5,204.5 178.5,204.5 C178.5,204.5 -178.5,204.5 -178.5,204.5 C-178.5,204.5 -178.5,-204.5 -178.5,-204.5 C-178.5,-204.5 178.5,-204.5 178.5,-204.5z"/><path fill="rgb(255,0,0)" fill-opacity="1" d=" M178.5,-204.5 C178.5,-204.5 178.5,204.5 178.5,204.5 C178.5,204.5 -178.5,204.5 -178.5,204.5 C-178.5,204.5 -178.5,-204.5 -178.5,-204.5 C-178.5,-204.5 178.5,-204.5 178.5,-204.5z"/></g></g></g><filter id="__lottie_element_7396" filterUnits="objectBoundingBox" x="0%" y="0%" width="100%" height="100%"><feComponentTransfer in="SourceGraphic"><feFuncA type="table" tableValues="1.0 0.0"/></feComponentTransfer></filter><mask id="__lottie_element_7390_2" mask-type="alpha"><g filter="url(#__lottie_element_7396)"><rect width="430" height="430" x="0" y="0" fill="#ffffff" opacity="0"/><use xmlns:ns1="http://www.w3.org/1999/xlink" ns1:href="#__lottie_element_7390"/></g></mask></defs><g clip-path="url(#__lottie_element_7372)"><g clip-path="url(#__lottie_element_7374)" transform="matrix(1,0,0,1,0,0)" opacity="1" style="display: block;"><g transform="matrix(1,0,0,1,-35,-516)" opacity="1" style="display: block;"><g opacity="1" transform="matrix(1,0,0,1,189.9550018310547,730.97900390625)"><path class="tertiary" fill="rgb(75,179,253)" fill-opacity="1" d=" M100.07499694824219,53.37300109863281 C100.07499694824219,53.37300109863281 100.07499694824219,95.43299865722656 100.07499694824219,95.43299865722656 C100.07499694824219,116.41999816894531 83.06199645996094,133.43299865722656 62.07500076293945,133.43299865722656 C62.07500076293945,133.43299865722656 -62.07500076293945,133.43299865722656 -62.07500076293945,133.43299865722656 C-83.06199645996094,133.43299865722656 -100.07499694824219,116.41999816894531 -100.07499694824219,95.43299865722656 C-100.07499694824219,95.43299865722656 -100.07499694824219,-95.43299865722656 -100.07499694824219,-95.43299865722656 C-100.07499694824219,-116.41999816894531 -83.06199645996094,-133.43299865722656 -62.07500076293945,-133.43299865722656 C-62.07500076293945,-133.43299865722656 62.07500076293945,-133.43299865722656 62.07500076293945,-133.43299865722656 C83.06199645996094,-133.43299865722656 100.07499694824219,-116.41999816894531 100.07499694824219,-95.43299865722656 C100.07499694824219,-95.43299865722656 100.07499694824219,-53.37300109863281 100.07499694824219,-53.37300109863281 C100.07499694824219,-53.37300109863281 100.07499694824219,53.37300109863281 100.07499694824219,53.37300109863281z"/></g><g opacity="0.5" transform="matrix(1,0,0,1,189.1020050048828,731.8319702148438)" style="mix-blend-mode: multiply;"><path class="tertiary" fill="rgb(75,179,253)" fill-opacity="1" d=" M87.9280014038086,107.5790023803711 C87.9280014038086,107.5790023803711 -36.22100067138672,107.5790023803711 -36.22100067138672,107.5790023803711 C-57.20800018310547,107.5790023803711 -74.22100067138672,90.56600189208984 -74.22100067138672,69.5790023803711 C-74.22100067138672,69.5790023803711 -74.22100067138672,-121.28600311279297 -74.22100067138672,-121.28600311279297 C-74.22100067138672,-125.21900177001953 -73.6240005493164,-129.01100158691406 -72.51499938964844,-132.57899475097656 C-87.98699951171875,-127.7699966430664 -99.22100067138672,-113.33999633789062 -99.22100067138672,-96.28600311279297 C-99.22100067138672,-96.28600311279297 -99.22100067138672,94.5790023803711 -99.22100067138672,94.5790023803711 C-99.22100067138672,115.56600189208984 -82.20800018310547,132.57899475097656 -61.22100067138672,132.57899475097656 C-61.22100067138672,132.57899475097656 62.928001403808594,132.57899475097656 62.928001403808594,132.57899475097656 C79.98200225830078,132.57899475097656 94.41200256347656,121.34500122070312 99.22100067138672,105.87300109863281 C95.65299987792969,106.98200225830078 91.86100006103516,107.5790023803711 87.9280014038086,107.5790023803711z"/></g></g><g transform="matrix(1,0,0,1,154.9499969482422,215)" opacity="1" style="display: block;"><g opacity="1" transform="matrix(1,0,0,1,0,0)"><path stroke-linecap="round" stroke-linejoin="round" fill-opacity="0" class="primary" stroke="rgb(18,19,49)" stroke-opacity="1" stroke-width="7" d=" M100.05000305175781,-5.849999904632568 C100.05000305175781,-5.849999904632568 100.05000305175781,-95.44999694824219 100.05000305175781,-95.44999694824219 C100.05000305175781,-116.44999694824219 83.05000305175781,-133.4499969482422 62.04999923706055,-133.4499969482422 C62.04999923706055,-133.4499969482422 -62.04999923706055,-133.4499969482422 -62.04999923706055,-133.4499969482422 C-83.05000305175781,-133.4499969482422 -100.05000305175781,-116.44999694824219 -100.05000305175781,-95.44999694824219 C-100.05000305175781,-95.44999694824219 -100.05000305175781,95.44999694824219 -100.05000305175781,95.44999694824219 C-100.05000305175781,116.44999694824219 -83.05000305175781,133.4499969482422 -62.04999923706055,133.4499969482422 C-62.04999923706055,133.4499969482422 62.04999923706055,133.4499969482422 62.04999923706055,133.4499969482422 C83.05000305175781,133.4499969482422 100.05000305175781,116.44999694824219 100.05000305175781,95.44999694824219 C100.05000305175781,95.44999694824219 100.05000305175781,-6.650000095367432 100.05000305175781,-6.650000095367432"/></g></g><g mask="url(#__lottie_element_7390_2)" style="display: block;"><g transform="matrix(1,0,0,1,-370,-516)" opacity="1"><g opacity="1" transform="matrix(1,0,0,1,278.9419860839844,731.0709838867188)"><path class="secondary" fill="rgb(255,199,56)" fill-opacity="1" d=" M-27.71500015258789,-49.310001373291016 C-27.71500015258789,-49.310001373291016 -86.73999786376953,-4.25600004196167 -86.73999786376953,-4.25600004196167 C-89.35199737548828,-2.263000011444092 -89.36299896240234,1.6649999618530273 -86.76300048828125,3.6740000247955322 C-86.76300048828125,3.6740000247955322 -27.731000900268555,49.29800033569336 -27.731000900268555,49.29800033569336 C-25.540000915527344,50.99100112915039 -22.358999252319336,49.43000030517578 -22.358999252319336,46.6609992980957 C-22.358999252319336,46.6609992980957 -22.358999252319336,25.597000122070312 -22.358999252319336,25.597000122070312 C-22.358999252319336,24.677000045776367 -21.613000869750977,23.93000030517578 -20.69300079345703,23.93000030517578 C-20.69300079345703,23.93000030517578 85.56400299072266,23.93000030517578 85.56400299072266,23.93000030517578 C87.29900360107422,23.93000030517578 88.70600128173828,22.52400016784668 88.70600128173828,20.788999557495117 C88.70600128173828,20.788999557495117 88.70600128173828,-20.738000869750977 88.70600128173828,-20.738000869750977 C88.70600128173828,-22.472999572753906 87.29900360107422,-23.878999710083008 85.56400299072266,-23.878999710083008 C85.56400299072266,-23.878999710083008 -20.69300079345703,-23.878999710083008 -20.69300079345703,-23.878999710083008 C-21.613000869750977,-23.878999710083008 -22.358999252319336,-24.625999450683594 -22.358999252319336,-25.54599952697754 C-22.358999252319336,-25.54599952697754 -22.358999252319336,-46.6609992980957 -22.358999252319336,-46.6609992980957 C-22.358999252319336,-49.42100143432617 -25.520999908447266,-50.98400115966797 -27.71500015258789,-49.310001373291016z"/><path stroke-linecap="butt" stroke-linejoin="miter" fill-opacity="0" stroke-miterlimit="4" class="primary" stroke="rgb(18,19,49)" stroke-opacity="1" stroke-width="7" d=" M-27.71500015258789,-49.310001373291016 C-27.71500015258789,-49.310001373291016 -86.73999786376953,-4.25600004196167 -86.73999786376953,-4.25600004196167 C-89.35199737548828,-2.263000011444092 -89.36299896240234,1.6649999618530273 -86.76300048828125,3.6740000247955322 C-86.76300048828125,3.6740000247955322 -27.731000900268555,49.29800033569336 -27.731000900268555,49.29800033569336 C-25.540000915527344,50.99100112915039 -22.358999252319336,49.43000030517578 -22.358999252319336,46.6609992980957 C-22.358999252319336,46.6609992980957 -22.358999252319336,25.597000122070312 -22.358999252319336,25.597000122070312 C-22.358999252319336,24.677000045776367 -21.613000869750977,23.93000030517578 -20.69300079345703,23.93000030517578 C-20.69300079345703,23.93000030517578 85.56400299072266,23.93000030517578 85.56400299072266,23.93000030517578 C87.29900360107422,23.93000030517578 88.70600128173828,22.52400016784668 88.70600128173828,20.788999557495117 C88.70600128173828,20.788999557495117 88.70600128173828,-20.738000869750977 88.70600128173828,-20.738000869750977 C88.70600128173828,-22.472999572753906 87.29900360107422,-23.878999710083008 85.56400299072266,-23.878999710083008 C85.56400299072266,-23.878999710083008 -20.69300079345703,-23.878999710083008 -20.69300079345703,-23.878999710083008 C-21.613000869750977,-23.878999710083008 -22.358999252319336,-24.625999450683594 -22.358999252319336,-25.54599952697754 C-22.358999252319336,-25.54599952697754 -22.358999252319336,-46.6609992980957 -22.358999252319336,-46.6609992980957 C-22.358999252319336,-49.42100143432617 -25.520999908447266,-50.98400115966797 -27.71500015258789,-49.310001373291016z"/></g><g opacity="0.5" transform="matrix(1,0,0,1,278.9419860839844,755.9180297851562)" style="mix-blend-mode: multiply;"><path class="secondary" fill="rgb(255,199,56)" fill-opacity="1" d=" M-22.013999938964844,-0.9160000085830688 C-22.013999938964844,-0.9160000085830688 -20.69300079345703,-0.9160000085830688 -20.69300079345703,-0.9160000085830688 C-20.69300079345703,-0.9160000085830688 -20.69300079345703,-0.9160000085830688 -20.69300079345703,-0.9160000085830688 C-20.69300079345703,-0.9160000085830688 86.47599792480469,-0.9160000085830688 86.47599792480469,-0.9160000085830688 C87.70700073242188,-0.9160000085830688 88.70500183105469,-1.9140000343322754 88.70500183105469,-3.1459999084472656 C88.70500183105469,-3.1459999084472656 88.70500183105469,-22.011999130249023 88.70500183105469,-22.011999130249023 C88.70500183105469,-23.746999740600586 87.29900360107422,-25.152999877929688 85.56400299072266,-25.152999877929688 C85.56400299072266,-25.152999877929688 -82.00900268554688,-25.152999877929688 -82.00900268554688,-25.152999877929688 C-82.00900268554688,-25.152999877929688 -85.38200378417969,-25.152999877929688 -85.38200378417969,-25.152999877929688 C-85.38200378417969,-25.152999877929688 -88.70500183105469,-25.152999877929688 -88.70500183105469,-25.152999877929688 C-88.71199798583984,-23.667999267578125 -88.06700134277344,-22.18000030517578 -86.76399993896484,-21.17300033569336 C-86.76399993896484,-21.17300033569336 -56.290000915527344,2.378999948501587 -56.290000915527344,2.378999948501587 C-56.290000915527344,2.378999948501587 -27.729999542236328,24.45199966430664 -27.729999542236328,24.45199966430664 C-25.538999557495117,26.145000457763672 -22.358999252319336,24.58300018310547 -22.358999252319336,21.81399917602539 C-22.358999252319336,21.81399917602539 -22.358999252319336,0.75 -22.358999252319336,0.75 C-22.358999252319336,0.75 -22.358999252319336,-0.5709999799728394 -22.358999252319336,-0.5709999799728394 C-22.358999252319336,-0.7620000243186951 -22.204999923706055,-0.9160000085830688 -22.013999938964844,-0.9160000085830688z"/></g></g></g><g transform="matrix(1,0,0,1,-168.5500030517578,215)" opacity="1" style="display: block;"><g opacity="1" transform="matrix(1,0,0,1,0,0)"/></g><g transform="matrix(1,0,0,1,166.4499969482422,215)" opacity="1" style="display: block;"><g opacity="1" transform="matrix(1,0,0,1,0,0)"/></g><g transform="matrix(1,0,0,1,-35.37501525878906,-516)" opacity="1" style="display: block;"><g opacity="1" transform="matrix(1,0,0,1,278.9419860839844,731.0709838867188)"><path class="secondary" fill="rgb(255,199,56)" fill-opacity="1" d=" M-27.71500015258789,-49.310001373291016 C-27.71500015258789,-49.310001373291016 -86.73999786376953,-4.25600004196167 -86.73999786376953,-4.25600004196167 C-89.35199737548828,-2.263000011444092 -89.36299896240234,1.6649999618530273 -86.76300048828125,3.6740000247955322 C-86.76300048828125,3.6740000247955322 -27.731000900268555,49.29800033569336 -27.731000900268555,49.29800033569336 C-25.540000915527344,50.99100112915039 -22.358999252319336,49.43000030517578 -22.358999252319336,46.6609992980957 C-22.358999252319336,46.6609992980957 -22.358999252319336,25.597000122070312 -22.358999252319336,25.597000122070312 C-22.358999252319336,24.677000045776367 -21.613000869750977,23.93000030517578 -20.69300079345703,23.93000030517578 C-20.69300079345703,23.93000030517578 85.56400299072266,23.93000030517578 85.56400299072266,23.93000030517578 C87.29900360107422,23.93000030517578 88.70600128173828,22.52400016784668 88.70600128173828,20.788999557495117 C88.70600128173828,20.788999557495117 88.70600128173828,-20.738000869750977 88.70600128173828,-20.738000869750977 C88.70600128173828,-22.472999572753906 87.29900360107422,-23.878999710083008 85.56400299072266,-23.878999710083008 C85.56400299072266,-23.878999710083008 -20.69300079345703,-23.878999710083008 -20.69300079345703,-23.878999710083008 C-21.613000869750977,-23.878999710083008 -22.358999252319336,-24.625999450683594 -22.358999252319336,-25.54599952697754 C-22.358999252319336,-25.54599952697754 -22.358999252319336,-46.6609992980957 -22.358999252319336,-46.6609992980957 C-22.358999252319336,-49.42100143432617 -25.520999908447266,-50.98400115966797 -27.71500015258789,-49.310001373291016z"/><path stroke-linecap="butt" stroke-linejoin="miter" fill-opacity="0" stroke-miterlimit="4" class="primary" stroke="rgb(18,19,49)" stroke-opacity="1" stroke-width="7" d=" M-27.71500015258789,-49.310001373291016 C-27.71500015258789,-49.310001373291016 -86.73999786376953,-4.25600004196167 -86.73999786376953,-4.25600004196167 C-89.35199737548828,-2.263000011444092 -89.36299896240234,1.6649999618530273 -86.76300048828125,3.6740000247955322 C-86.76300048828125,3.6740000247955322 -27.731000900268555,49.29800033569336 -27.731000900268555,49.29800033569336 C-25.540000915527344,50.99100112915039 -22.358999252319336,49.43000030517578 -22.358999252319336,46.6609992980957 C-22.358999252319336,46.6609992980957 -22.358999252319336,25.597000122070312 -22.358999252319336,25.597000122070312 C-22.358999252319336,24.677000045776367 -21.613000869750977,23.93000030517578 -20.69300079345703,23.93000030517578 C-20.69300079345703,23.93000030517578 85.56400299072266,23.93000030517578 85.56400299072266,23.93000030517578 C87.29900360107422,23.93000030517578 88.70600128173828,22.52400016784668 88.70600128173828,20.788999557495117 C88.70600128173828,20.788999557495117 88.70600128173828,-20.738000869750977 88.70600128173828,-20.738000869750977 C88.70600128173828,-22.472999572753906 87.29900360107422,-23.878999710083008 85.56400299072266,-23.878999710083008 C85.56400299072266,-23.878999710083008 -20.69300079345703,-23.878999710083008 -20.69300079345703,-23.878999710083008 C-21.613000869750977,-23.878999710083008 -22.358999252319336,-24.625999450683594 -22.358999252319336,-25.54599952697754 C-22.358999252319336,-25.54599952697754 -22.358999252319336,-46.6609992980957 -22.358999252319336,-46.6609992980957 C-22.358999252319336,-49.42100143432617 -25.520999908447266,-50.98400115966797 -27.71500015258789,-49.310001373291016z"/></g><g opacity="0.5" transform="matrix(1,0,0,1,278.9419860839844,755.9180297851562)" style="mix-blend-mode: multiply;"><path class="secondary" fill="rgb(255,199,56)" fill-opacity="1" d=" M-22.013999938964844,-0.9160000085830688 C-22.013999938964844,-0.9160000085830688 -20.69300079345703,-0.9160000085830688 -20.69300079345703,-0.9160000085830688 C-20.69300079345703,-0.9160000085830688 -20.69300079345703,-0.9160000085830688 -20.69300079345703,-0.9160000085830688 C-20.69300079345703,-0.9160000085830688 86.47599792480469,-0.9160000085830688 86.47599792480469,-0.9160000085830688 C87.70700073242188,-0.9160000085830688 88.70500183105469,-1.9140000343322754 88.70500183105469,-3.1459999084472656 C88.70500183105469,-3.1459999084472656 88.70500183105469,-22.011999130249023 88.70500183105469,-22.011999130249023 C88.70500183105469,-23.746999740600586 87.29900360107422,-25.152999877929688 85.56400299072266,-25.152999877929688 C85.56400299072266,-25.152999877929688 -82.00900268554688,-25.152999877929688 -82.00900268554688,-25.152999877929688 C-82.00900268554688,-25.152999877929688 -85.38200378417969,-25.152999877929688 -85.38200378417969,-25.152999877929688 C-85.38200378417969,-25.152999877929688 -88.70500183105469,-25.152999877929688 -88.70500183105469,-25.152999877929688 C-88.71199798583984,-23.667999267578125 -88.06700134277344,-22.18000030517578 -86.76399993896484,-21.17300033569336 C-86.76399993896484,-21.17300033569336 -56.290000915527344,2.378999948501587 -56.290000915527344,2.378999948501587 C-56.290000915527344,2.378999948501587 -27.729999542236328,24.45199966430664 -27.729999542236328,24.45199966430664 C-25.538999557495117,26.145000457763672 -22.358999252319336,24.58300018310547 -22.358999252319336,21.81399917602539 C-22.358999252319336,21.81399917602539 -22.358999252319336,0.75 -22.358999252319336,0.75 C-22.358999252319336,0.75 -22.358999252319336,-0.5709999799728394 -22.358999252319336,-0.5709999799728394 C-22.358999252319336,-0.7620000243186951 -22.204999923706055,-0.9160000085830688 -22.013999938964844,-0.9160000085830688z"/></g></g><g transform="matrix(1,0,0,1,154.9499969482422,215)" opacity="1" style="display: block;"><g opacity="1" transform="matrix(1,0,0,1,0,0)"><path stroke-linecap="round" stroke-linejoin="round" fill-opacity="0" class="primary" stroke="rgb(18,19,49)" stroke-opacity="1" stroke-width="7" d=" M100.05000305175781,-95.44999694824219 C100.05000305175781,-116.44999694824219 83.05000305175781,-133.4499969482422 62.04999923706055,-133.4499969482422 C62.04999923706055,-133.4499969482422 -62.04999923706055,-133.4499969482422 -62.04999923706055,-133.4499969482422 C-83.05000305175781,-133.4499969482422 -100.05000305175781,-116.44999694824219 -100.05000305175781,-95.44999694824219 C-100.05000305175781,-95.44999694824219 -100.05000305175781,95.44999694824219 -100.05000305175781,95.44999694824219 C-100.05000305175781,116.44999694824219 -83.05000305175781,133.4499969482422 -62.04999923706055,133.4499969482422 C-62.04999923706055,133.4499969482422 62.04999923706055,133.4499969482422 62.04999923706055,133.4499969482422 C83.05000305175781,133.4499969482422 100.05000305175781,116.44999694824219 100.05000305175781,95.44999694824219"/></g></g></g></g></svg>